<svg version="1.1" xmlns="http://www.w3.org/2000/svg" xmlns:xlink="http://www.w3.org/1999/xlink" width="635.2" height="570.8000000000001"><defs><linearGradient id="kAfbMAzPTRiX" x1="2306.0000014305115px" x2="1001.5000003576279px" y1="607.5000014305115px" y2="1050.0000021457672px" gradientUnits="userSpaceOnUse"><stop offset="0" stop-color="rgb(255,193,7)" stop-opacity="1"/><stop offset="1" stop-color="rgb(132,80,186)" stop-opacity="1"/></linearGradient><linearGradient id="CqSRUVTMXqBN" x1="2306.0000014305115px" x2="1001.5000003576279px" y1="607.5000014305115px" y2="1050.0000021457672px" gradientUnits="userSpaceOnUse"><stop offset="0" stop-color="rgb(255,193,7)" stop-opacity="1"/><stop offset="1" stop-color="rgb(132,80,186)" stop-opacity="1"/></linearGradient><linearGradient id="omOybWkTqrTI" x1="2306.0000014305115px" x2="1001.5000003576279px" y1="341.5px" y2="1050.0000021457672px" gradientUnits="userSpaceOnUse"><stop offset="0" stop-color="rgb(255,193,7)" stop-opacity="1"/><stop offset="1" stop-color="rgb(132,80,186)" stop-opacity="1"/></linearGradient><linearGradient id="gRlaXRUSgbeH" x1="2306.0000014305115px" x2="1001.5000003576279px" y1="341.5px" y2="1050.0000021457672px" gradientUnits="userSpaceOnUse"><stop offset="0" stop-color="rgb(255,193,7)" stop-opacity="1"/><stop offset="1" stop-color="rgb(132,80,186)" stop-opacity="1"/></linearGradient><linearGradient id="CpTBDyEorTBN" x1="2306.0000014305115px" x2="1001.5000003576279px" y1="474.50000071525574px" y2="1050.0000021457672px" gradientUnits="userSpaceOnUse"><stop offset="0" stop-color="rgb(255,193,7)" stop-opacity="1"/><stop offset="1" stop-color="rgb(132,80,186)" stop-opacity="1"/></linearGradient><linearGradient id="UHBnZhNirFyh" x1="2306.0000014305115px" x2="1001.5000003576279px" y1="474.50000071525574px" y2="1050.0000021457672px" gradientUnits="userSpaceOnUse"><stop offset="0" stop-color="rgb(255,193,7)" stop-opacity="1"/><stop offset="1" stop-color="rgb(132,80,186)" stop-opacity="1"/></linearGradient><linearGradient id="IBSufaVmIaCJ" x1="1001.5000003576279px" x2="1303.0000007152557px" y1="1050.0000021457672px" y2="341.5px" gradientUnits="userSpaceOnUse"><stop offset="0" stop-color="rgb(132,80,186)" stop-opacity="1"/><stop offset="1" stop-color="rgb(0,0,0)" stop-opacity="1"/></linearGradient><linearGradient id="gvIWRyqTotLL" x1="1001.5000003576279px" x2="1303.0000007152557px" y1="1050.0000021457672px" y2="474.50000071525574px" gradientUnits="userSpaceOnUse"><stop offset="0" stop-color="rgb(132,80,186)" stop-opacity="1"/><stop offset="1" stop-color="rgb(0,0,0)" stop-opacity="1"/></linearGradient><linearGradient id="MkduefuPdefw" x1="1503.0000007152557px" x2="600px" y1="1473.500002861023px" y2="2159.0000042915344px" gradientUnits="userSpaceOnUse"><stop offset="0" stop-color="rgb(255,193,7)" stop-opacity="1"/><stop offset="1" stop-color="rgb(211,211,211)" stop-opacity="1"/></linearGradient><linearGradient id="XdaAgsAaTTLy" x1="1503.0000007152557px" x2="600px" y1="1606.5000035762787px" y2="2159.0000042915344px" gradientUnits="userSpaceOnUse"><stop offset="0" stop-color="rgb(255,193,7)" stop-opacity="1"/><stop offset="1" stop-color="rgb(211,211,211)" stop-opacity="1"/></linearGradient><linearGradient id="sTzJwhCAzQWt" x1="1503.0000007152557px" x2="600px" y1="1340.5000021457672px" y2="2159.0000042915344px" gradientUnits="userSpaceOnUse"><stop offset="0" stop-color="rgb(255,193,7)" stop-opacity="1"/><stop offset="1" stop-color="rgb(211,211,211)" stop-opacity="1"/></linearGradient><linearGradient id="OuNxTONaOCod" x1="600px" x2="500px" y1="2159.0000042915344px" y2="1606.5000035762787px" gradientUnits="userSpaceOnUse"><stop offset="0" stop-color="rgb(211,211,211)" stop-opacity="1"/><stop offset="1" stop-color="rgb(29,122,218)" stop-opacity="1"/></linearGradient><linearGradient id="AMlorLlETGNb" x1="600px" x2="500px" y1="2159.0000042915344px" y2="1340.5000021457672px" gradientUnits="userSpaceOnUse"><stop offset="0" stop-color="rgb(211,211,211)" stop-opacity="1"/><stop offset="1" stop-color="rgb(29,122,218)" stop-opacity="1"/></linearGradient><linearGradient id="bidnLZrUkZUZ" x1="600px" x2="500px" y1="2159.0000042915344px" y2="1473.500002861023px" gradientUnits="userSpaceOnUse"><stop offset="0" stop-color="rgb(211,211,211)" stop-opacity="1"/><stop offset="1" stop-color="rgb(29,122,218)" stop-opacity="1"/></linearGradient></defs><g transform="translate(57.7,9.200000000000001) scale(0.2,0.2)"><path fill="rgb(244,236,255)" stroke="rgb(255,255,255)" paint-order="fill stroke markers" d=" M 1299.2500007152557 -44 L 2877.0000014305115 -44 L 2877.0000014305115 -44 A 8 8 0 0 1 2885.0000014305115 -36 L 2885.0000014305115 2797.5000042915344 L 2885.0000014305115 2797.5000042915344 A 8 8 0 0 1 2877.0000014305115 2805.5000042915344 L -278.5 2805.5000042915344 L -278.5 2805.5000042915344 A 8 8 0 0 1 -286.5 2797.5000042915344 L -286.5 -36 L -286.5 -36 A 8 8 0 0 1 -278.5 -44 L 1299.2500007152557 -44 Z" fill-opacity="1" stroke-opacity="1" stroke-miterlimit="10" stroke-width="2"/><text fill="rgb(0,0,0)" stroke="none" font-family="Avenir, Helvetica, Arial, sans-serif" font-size="32px" font-style="normal" font-weight="bold" text-decoration="normal" x="1299.2500007152557" y="31" text-anchor="middle" dominant-baseline="text-after-edge" fill-opacity="1">.</text><path fill="rgb(255,255,255)" stroke="rgb(211,211,211)" paint-order="fill stroke markers" d=" M 1001.5000003576279 949.0000021457672 L 2080.0000007152557 949.0000021457672 L 2080.0000007152557 949.0000021457672 A 8 8 0 0 1 2088.0000007152557 957.0000021457672 L 2088.0000007152557 2596.0000042915344 L 2088.0000007152557 2596.0000042915344 A 8 8 0 0 1 2080.0000007152557 2604.0000042915344 L -77 2604.0000042915344 L -77 2604.0000042915344 A 8 8 0 0 1 -85 2596.0000042915344 L -85 957.0000021457672 L -85 957.0000021457672 A 8 8 0 0 1 -77 949.0000021457672 L 1001.5000003576279 949.0000021457672 Z" fill-opacity="1" stroke-opacity="1" stroke-miterlimit="10"/><text fill="rgb(0,0,0)" stroke="none" font-family="Avenir, Helvetica, Arial, sans-serif" font-size="32px" font-style="normal" font-weight="bold" text-decoration="normal" x="1001.5000003576279" y="1024.0000021457672" text-anchor="middle" dominant-baseline="text-after-edge" fill-opacity="1">main.tf</text><path fill="rgb(255,255,255)" stroke="rgb(211,211,211)" paint-order="fill stroke markers" d=" M 1303.0000007152557 157.5 L 1672.5000007152557 157.5 L 1672.5000007152557 157.5 A 8 8 0 0 1 1680.5000007152557 165.5 L 1680.5000007152557 567.5000007152557 L 1680.5000007152557 567.5000007152557 A 8 8 0 0 1 1672.5000007152557 575.5000007152557 L 933.5000007152557 575.5000007152557 L 933.5000007152557 575.5000007152557 A 8 8 0 0 1 925.5000007152557 567.5000007152557 L 925.5000007152557 165.5 L 925.5000007152557 165.5 A 8 8 0 0 1 933.5000007152557 157.5 L 1303.0000007152557 157.5 Z" fill-opacity="1" stroke-opacity="1" stroke-miterlimit="10"/><text fill="rgb(0,0,0)" stroke="none" font-family="Avenir, Helvetica, Arial, sans-serif" font-size="32px" font-style="normal" font-weight="bold" text-decoration="normal" x="1303.0000007152557" y="232.5" text-anchor="middle" dominant-baseline="text-after-edge" fill-opacity="1">unknown file</text><path fill="rgb(255,255,255)" stroke="rgb(211,211,211)" paint-order="fill stroke markers" d=" M 2306.0000014305115 157.5 L 2675.5000014305115 157.5 L 2675.5000014305115 157.5 A 8 8 0 0 1 2683.5000014305115 165.5 L 2683.5000014305115 700.5000014305115 L 2683.5000014305115 700.5000014305115 A 8 8 0 0 1 2675.5000014305115 708.5000014305115 L 1936.5000014305115 708.5000014305115 L 1936.5000014305115 708.5000014305115 A 8 8 0 0 1 1928.5000014305115 700.5000014305115 L 1928.5000014305115 165.5 L 1928.5000014305115 165.5 A 8 8 0 0 1 1936.5000014305115 157.5 L 2306.0000014305115 157.5 Z" fill-opacity="1" stroke-opacity="1" stroke-miterlimit="10"/><text fill="rgb(0,0,0)" stroke="none" font-family="Avenir, Helvetica, Arial, sans-serif" font-size="32px" font-style="normal" font-weight="bold" text-decoration="normal" x="2306.0000014305115" y="232.5" text-anchor="middle" dominant-baseline="text-after-edge" fill-opacity="1">outputs.tf</text><path fill="rgb(255,255,255)" stroke="rgb(211,211,211)" paint-order="fill stroke markers" d=" M 300 157.5 L 669.5 157.5 L 669.5 157.5 A 8 8 0 0 1 677.5 165.5 L 677.5 434.5 L 677.5 434.5 A 8 8 0 0 1 669.5 442.5 L -69.5 442.5 L -69.5 442.5 A 8 8 0 0 1 -77.5 434.5 L -77.5 165.5 L -77.5 165.5 A 8 8 0 0 1 -69.5 157.5 L 300 157.5 Z" fill-opacity="1" stroke-opacity="1" stroke-miterlimit="10"/><text fill="rgb(0,0,0)" stroke="none" font-family="Avenir, Helvetica, Arial, sans-serif" font-size="32px" font-style="normal" font-weight="bold" text-decoration="normal" x="300" y="232.5" text-anchor="middle" dominant-baseline="text-after-edge" fill-opacity="1">variables.tf</text><path fill="rgb(255,255,255)" stroke="rgb(132,80,186)" paint-order="fill stroke markers" d=" M 1001.5000003576279 1055.0000021457672 L 1974.0000007152557 1055.0000021457672 L 1974.0000007152557 1055.0000021457672 A 8 8 0 0 1 1982.0000007152557 1063.0000021457672 L 1982.0000007152557 2490.0000042915344 L 1982.0000007152557 2490.0000042915344 A 8 8 0 0 1 1974.0000007152557 2498.0000042915344 L 29 2498.0000042915344 L 29 2498.0000042915344 A 8 8 0 0 1 21 2490.0000042915344 L 21 1063.0000021457672 L 21 1063.0000021457672 A 8 8 0 0 1 29 1055.0000021457672 L 1001.5000003576279 1055.0000021457672 Z" fill-opacity="1" stroke-opacity="1" stroke-miterlimit="10" stroke-width="10"/><text fill="rgb(132,80,186)" stroke="none" font-family="Avenir, Helvetica, Arial, sans-serif" font-size="32px" font-style="normal" font-weight="bold" text-decoration="normal" x="1001.5000003576279" y="1115.0000021457672" text-anchor="middle" dominant-baseline="text-after-edge" fill-opacity="1">hcloud_ssh_key</text><path fill="rgb(255,255,255)" stroke="rgb(211,211,211)" paint-order="fill stroke markers" d=" M 500 1156.5000021457672 L 869.5 1156.5000021457672 L 869.5 1156.5000021457672 A 8 8 0 0 1 877.5 1164.5000021457672 L 877.5 1699.5000035762787 L 877.5 1699.5000035762787 A 8 8 0 0 1 869.5 1707.5000035762787 L 130.5 1707.5000035762787 L 130.5 1707.5000035762787 A 8 8 0 0 1 122.5 1699.5000035762787 L 122.5 1164.5000021457672 L 122.5 1164.5000021457672 A 8 8 0 0 1 130.5 1156.5000021457672 L 500 1156.5000021457672 Z" fill-opacity="1" stroke-opacity="1" stroke-miterlimit="10"/><text fill="rgb(0,0,0)" stroke="none" font-family="Avenir, Helvetica, Arial, sans-serif" font-size="32px" font-style="normal" font-weight="bold" text-decoration="normal" x="500" y="1231.5000021457672" text-anchor="middle" dominant-baseline="text-after-edge" fill-opacity="1">variables.tf</text><path fill="rgb(255,255,255)" stroke="rgb(211,211,211)" paint-order="fill stroke markers" d=" M 600 1954.0000042915344 L 1025.5 1954.0000042915344 L 1025.5 1954.0000042915344 A 8 8 0 0 1 1033.5 1962.0000042915344 L 1033.5 2388.5000042915344 L 1033.5 2388.5000042915344 A 8 8 0 0 1 1025.5 2396.5000042915344 L 174.5 2396.5000042915344 L 174.5 2396.5000042915344 A 8 8 0 0 1 166.5 2388.5000042915344 L 166.5 1962.0000042915344 L 166.5 1962.0000042915344 A 8 8 0 0 1 174.5 1954.0000042915344 L 600 1954.0000042915344 Z" fill-opacity="1" stroke-opacity="1" stroke-miterlimit="10"/><text fill="rgb(0,0,0)" stroke="none" font-family="Avenir, Helvetica, Arial, sans-serif" font-size="32px" font-style="normal" font-weight="bold" text-decoration="normal" x="600" y="2029.0000042915344" text-anchor="middle" dominant-baseline="text-after-edge" fill-opacity="1">main.tf</text><path fill="rgb(255,255,255)" stroke="rgb(211,211,211)" paint-order="fill stroke markers" d=" M 1503.0000007152557 1156.5000021457672 L 1872.5000007152557 1156.5000021457672 L 1872.5000007152557 1156.5000021457672 A 8 8 0 0 1 1880.5000007152557 1164.5000021457672 L 1880.5000007152557 1699.5000035762787 L 1880.5000007152557 1699.5000035762787 A 8 8 0 0 1 1872.5000007152557 1707.5000035762787 L 1133.5000007152557 1707.5000035762787 L 1133.5000007152557 1707.5000035762787 A 8 8 0 0 1 1125.5000007152557 1699.5000035762787 L 1125.5000007152557 1164.5000021457672 L 1125.5000007152557 1164.5000021457672 A 8 8 0 0 1 1133.5000007152557 1156.5000021457672 L 1503.0000007152557 1156.5000021457672 Z" fill-opacity="1" stroke-opacity="1" stroke-miterlimit="10"/><text fill="rgb(0,0,0)" stroke="none" font-family="Avenir, Helvetica, Arial, sans-serif" font-size="32px" font-style="normal" font-weight="bold" text-decoration="normal" x="1503.0000007152557" y="1231.5000021457672" text-anchor="middle" dominant-baseline="text-after-edge" fill-opacity="1">outputs.tf</text><path fill="rgb(255,255,255)" stroke="rgb(0,0,0)" paint-order="fill stroke markers" d=" M 600 2103.0000042915344 L 922 2103.0000042915344 L 922 2103.0000042915344 A 8 8 0 0 1 930 2111.0000042915344 L 930 2285.0000042915344 L 930 2285.0000042915344 A 8 8 0 0 1 922 2293.0000042915344 L 278 2293.0000042915344 L 278 2293.0000042915344 A 8 8 0 0 1 270 2285.0000042915344 L 270 2111.0000042915344 L 270 2111.0000042915344 A 8 8 0 0 1 278 2103.0000042915344 L 600 2103.0000042915344 Z" fill-opacity="1" stroke-opacity="1" stroke-miterlimit="10" stroke-width="5"/><rect fill="rgb(255,255,255)" stroke="none" x="452.5" y="2054.0000042915344" width="295" height="96" fill-opacity="1"/><text fill="rgb(0,0,0)" stroke="none" font-family="Avenir, Helvetica, Arial, sans-serif" font-size="32px" font-style="normal" font-weight="bold" text-decoration="normal" x="600" y="2118.0000042915344" text-anchor="middle" dominant-baseline="text-after-edge" fill-opacity="1">hcloud_ssh_key</text><path fill="none" stroke="url(#kAfbMAzPTRiX)" paint-order="fill stroke markers" d=" M 2306.0000014305115 607.5000014305115 L 2306.0000014305115 828.7500017881393 L 1001.5000003576279 828.7500017881393 L 1001.5000003576279 1050.0000021457672" stroke-linejoin="round" stroke-miterlimit="10" stroke-width="10"/><path fill="none" stroke="url(#CqSRUVTMXqBN)" paint-order="fill stroke markers" d=" M 2306.0000014305115 607.5000014305115 L 2306.0000014305115 828.7500017881393 L 1001.5000003576279 828.7500017881393 L 1001.5000003576279 1050.0000021457672" stroke-linejoin="round" stroke-miterlimit="10" stroke-width="10"/><path fill="none" stroke="url(#omOybWkTqrTI)" paint-order="fill stroke markers" d=" M 2306.0000014305115 341.5 L 2306.0000014305115 695.7500010728836 L 1001.5000003576279 695.7500010728836 L 1001.5000003576279 1050.0000021457672" stroke-linejoin="round" stroke-miterlimit="10" stroke-width="10"/><path fill="none" stroke="url(#gRlaXRUSgbeH)" paint-order="fill stroke markers" d=" M 2306.0000014305115 341.5 L 2306.0000014305115 695.7500010728836 L 1001.5000003576279 695.7500010728836 L 1001.5000003576279 1050.0000021457672" stroke-linejoin="round" stroke-miterlimit="10" stroke-width="10"/><path fill="none" stroke="url(#CpTBDyEorTBN)" paint-order="fill stroke markers" d=" M 2306.0000014305115 474.50000071525574 L 2306.0000014305115 762.2500014305115 L 1001.5000003576279 762.2500014305115 L 1001.5000003576279 1050.0000021457672" stroke-linejoin="round" stroke-miterlimit="10" stroke-width="10"/><path fill="none" stroke="url(#UHBnZhNirFyh)" paint-order="fill stroke markers" d=" M 2306.0000014305115 474.50000071525574 L 2306.0000014305115 762.2500014305115 L 1001.5000003576279 762.2500014305115 L 1001.5000003576279 1050.0000021457672" stroke-linejoin="round" stroke-miterlimit="10" stroke-width="10"/><path fill="none" stroke="url(#IBSufaVmIaCJ)" paint-order="fill stroke markers" d=" M 1001.5000003576279 1050.0000021457672 L 1001.5000003576279 695.7500010728836 L 1303.0000007152557 695.7500010728836 L 1303.0000007152557 341.5" stroke-linejoin="round" stroke-miterlimit="10" stroke-width="10"/><path fill="none" stroke="url(#gvIWRyqTotLL)" paint-order="fill stroke markers" d=" M 1001.5000003576279 1050.0000021457672 L 1001.5000003576279 762.2500014305115 L 1303.0000007152557 762.2500014305115 L 1303.0000007152557 474.50000071525574" stroke-linejoin="round" stroke-miterlimit="10" stroke-width="10"/><path fill="none" stroke="url(#MkduefuPdefw)" paint-order="fill stroke markers" d=" M 1503.0000007152557 1473.500002861023 L 1503.0000007152557 1816.2500035762787 L 600 1816.2500035762787 L 600 2159.0000042915344" stroke-linejoin="round" stroke-miterlimit="10" stroke-width="10"/><path fill="none" stroke="url(#XdaAgsAaTTLy)" paint-order="fill stroke markers" d=" M 1503.0000007152557 1606.5000035762787 L 1503.0000007152557 1882.7500039339066 L 600 1882.7500039339066 L 600 2159.0000042915344" stroke-linejoin="round" stroke-miterlimit="10" stroke-width="10"/><path fill="none" stroke="url(#sTzJwhCAzQWt)" paint-order="fill stroke markers" d=" M 1503.0000007152557 1340.5000021457672 L 1503.0000007152557 1749.7500032186508 L 600 1749.7500032186508 L 600 2159.0000042915344" stroke-linejoin="round" stroke-miterlimit="10" stroke-width="10"/><path fill="none" stroke="url(#OuNxTONaOCod)" paint-order="fill stroke markers" d=" M 600 2159.0000042915344 L 600 1882.7500039339066 L 500 1882.7500039339066 L 500 1606.5000035762787" stroke-linejoin="round" stroke-miterlimit="10" stroke-width="10"/><path fill="none" stroke="url(#AMlorLlETGNb)" paint-order="fill stroke markers" d=" M 600 2159.0000042915344 L 600 1749.7500032186508 L 500 1749.7500032186508 L 500 1340.5000021457672" stroke-linejoin="round" stroke-miterlimit="10" stroke-width="10"/><path fill="none" stroke="url(#bidnLZrUkZUZ)" paint-order="fill stroke markers" d=" M 600 2159.0000042915344 L 600 1816.2500035762787 L 500 1816.2500035762787 L 500 1473.500002861023" stroke-linejoin="round" stroke-miterlimit="10" stroke-width="10"/><path fill="rgb(225,240,255)" stroke="rgb(29,122,218)" paint-order="fill stroke markers" d=" M 500 1260.0000021457672 L 766 1260.0000021457672 L 766 1260.0000021457672 A 8 8 0 0 1 774 1268.0000021457672 L 774 1330.0000021457672 L 774 1330.0000021457672 A 8 8 0 0 1 766 1338.0000021457672 L 234 1338.0000021457672 L 234 1338.0000021457672 A 8 8 0 0 1 226 1330.0000021457672 L 226 1268.0000021457672 L 226 1268.0000021457672 A 8 8 0 0 1 234 1260.0000021457672 L 500 1260.0000021457672 Z" fill-opacity="1" stroke-opacity="1" stroke-miterlimit="10" stroke-width="5"/><text fill="rgb(0,0,0)" stroke="none" font-family="Avenir, Helvetica, Arial, sans-serif" font-size="32px" font-style="normal" font-weight="bold" text-decoration="normal" x="500" y="1315.0000021457672" text-anchor="middle" dominant-baseline="text-after-edge" fill-opacity="1">name</text><path fill="rgb(225,240,255)" stroke="rgb(29,122,218)" paint-order="fill stroke markers" d=" M 500 1393.000002861023 L 766 1393.000002861023 L 766 1393.000002861023 A 8 8 0 0 1 774 1401.000002861023 L 774 1463.000002861023 L 774 1463.000002861023 A 8 8 0 0 1 766 1471.000002861023 L 234 1471.000002861023 L 234 1471.000002861023 A 8 8 0 0 1 226 1463.000002861023 L 226 1401.000002861023 L 226 1401.000002861023 A 8 8 0 0 1 234 1393.000002861023 L 500 1393.000002861023 Z" fill-opacity="1" stroke-opacity="1" stroke-miterlimit="10" stroke-width="5"/><text fill="rgb(0,0,0)" stroke="none" font-family="Avenir, Helvetica, Arial, sans-serif" font-size="32px" font-style="normal" font-weight="bold" text-decoration="normal" x="500" y="1448.000002861023" text-anchor="middle" dominant-baseline="text-after-edge" fill-opacity="1">public_key</text><path fill="rgb(225,240,255)" stroke="rgb(29,122,218)" paint-order="fill stroke markers" d=" M 500 1526.0000035762787 L 766 1526.0000035762787 L 766 1526.0000035762787 A 8 8 0 0 1 774 1534.0000035762787 L 774 1596.0000035762787 L 774 1596.0000035762787 A 8 8 0 0 1 766 1604.0000035762787 L 234 1604.0000035762787 L 234 1604.0000035762787 A 8 8 0 0 1 226 1596.0000035762787 L 226 1534.0000035762787 L 226 1534.0000035762787 A 8 8 0 0 1 234 1526.0000035762787 L 500 1526.0000035762787 Z" fill-opacity="1" stroke-opacity="1" stroke-miterlimit="10" stroke-width="5"/><text fill="rgb(0,0,0)" stroke="none" font-family="Avenir, Helvetica, Arial, sans-serif" font-size="32px" font-style="normal" font-weight="bold" text-decoration="normal" x="500" y="1581.0000035762787" text-anchor="middle" dominant-baseline="text-after-edge" fill-opacity="1">labels</text><path fill="rgb(40,167,69)" stroke="none" paint-order="stroke fill markers" d=" M 600 2159.0000042915344 L 866 2159.0000042915344 L 866 2159.0000042915344 A 8 8 0 0 1 874 2167.0000042915344 L 874 2229.0000042915344 L 874 2229.0000042915344 A 8 8 0 0 1 866 2237.0000042915344 L 334 2237.0000042915344 L 334 2237.0000042915344 A 8 8 0 0 1 326 2229.0000042915344 L 326 2167.0000042915344 L 326 2167.0000042915344 A 8 8 0 0 1 334 2159.0000042915344 L 600 2159.0000042915344 Z" fill-opacity="1"/><text fill="rgb(255,255,255)" stroke="none" font-family="Avenir, Helvetica, Arial, sans-serif" font-size="32px" font-style="normal" font-weight="bold" text-decoration="normal" x="600" y="2214.0000042915344" text-anchor="middle" dominant-baseline="text-after-edge" fill-opacity="1">default</text><path fill="rgb(255,247,224)" stroke="rgb(255,193,7)" paint-order="fill stroke markers" d=" M 1503.0000007152557 1260.0000021457672 L 1769.0000007152557 1260.0000021457672 L 1769.0000007152557 1260.0000021457672 A 8 8 0 0 1 1777.0000007152557 1268.0000021457672 L 1777.0000007152557 1330.0000021457672 L 1777.0000007152557 1330.0000021457672 A 8 8 0 0 1 1769.0000007152557 1338.0000021457672 L 1237.0000007152557 1338.0000021457672 L 1237.0000007152557 1338.0000021457672 A 8 8 0 0 1 1229.0000007152557 1330.0000021457672 L 1229.0000007152557 1268.0000021457672 L 1229.0000007152557 1268.0000021457672 A 8 8 0 0 1 1237.0000007152557 1260.0000021457672 L 1503.0000007152557 1260.0000021457672 Z" fill-opacity="1" stroke-opacity="1" stroke-miterlimit="10" stroke-width="5"/><text fill="rgb(0,0,0)" stroke="none" font-family="Avenir, Helvetica, Arial, sans-serif" font-size="32px" font-style="normal" font-weight="bold" text-decoration="normal" x="1503.0000007152557" y="1315.0000021457672" text-anchor="middle" dominant-baseline="text-after-edge" fill-opacity="1">public_key</text><path fill="rgb(255,247,224)" stroke="rgb(255,193,7)" paint-order="fill stroke markers" d=" M 1503.0000007152557 1393.000002861023 L 1769.0000007152557 1393.000002861023 L 1769.0000007152557 1393.000002861023 A 8 8 0 0 1 1777.0000007152557 1401.000002861023 L 1777.0000007152557 1463.000002861023 L 1777.0000007152557 1463.000002861023 A 8 8 0 0 1 1769.0000007152557 1471.000002861023 L 1237.0000007152557 1471.000002861023 L 1237.0000007152557 1471.000002861023 A 8 8 0 0 1 1229.0000007152557 1463.000002861023 L 1229.0000007152557 1401.000002861023 L 1229.0000007152557 1401.000002861023 A 8 8 0 0 1 1237.0000007152557 1393.000002861023 L 1503.0000007152557 1393.000002861023 Z" fill-opacity="1" stroke-opacity="1" stroke-miterlimit="10" stroke-width="5"/><text fill="rgb(0,0,0)" stroke="none" font-family="Avenir, Helvetica, Arial, sans-serif" font-size="32px" font-style="normal" font-weight="bold" text-decoration="normal" x="1503.0000007152557" y="1448.000002861023" text-anchor="middle" dominant-baseline="text-after-edge" fill-opacity="1">fingerprint</text><path fill="rgb(255,247,224)" stroke="rgb(255,193,7)" paint-order="fill stroke markers" d=" M 1503.0000007152557 1526.0000035762787 L 1769.0000007152557 1526.0000035762787 L 1769.0000007152557 1526.0000035762787 A 8 8 0 0 1 1777.0000007152557 1534.0000035762787 L 1777.0000007152557 1596.0000035762787 L 1777.0000007152557 1596.0000035762787 A 8 8 0 0 1 1769.0000007152557 1604.0000035762787 L 1237.0000007152557 1604.0000035762787 L 1237.0000007152557 1604.0000035762787 A 8 8 0 0 1 1229.0000007152557 1596.0000035762787 L 1229.0000007152557 1534.0000035762787 L 1229.0000007152557 1534.0000035762787 A 8 8 0 0 1 1237.0000007152557 1526.0000035762787 L 1503.0000007152557 1526.0000035762787 Z" fill-opacity="1" stroke-opacity="1" stroke-miterlimit="10" stroke-width="5"/><text fill="rgb(0,0,0)" stroke="none" font-family="Avenir, Helvetica, Arial, sans-serif" font-size="32px" font-style="normal" font-weight="bold" text-decoration="normal" x="1503.0000007152557" y="1581.0000035762787" text-anchor="middle" dominant-baseline="text-after-edge" fill-opacity="1">name</text><path fill="rgb(0,0,0)" stroke="rgb(0,0,0)" paint-order="fill stroke markers" d=" M 1303.0000007152557 261 L 1569.0000007152557 261 L 1569.0000007152557 261 A 8 8 0 0 1 1577.0000007152557 269 L 1577.0000007152557 331 L 1577.0000007152557 331 A 8 8 0 0 1 1569.0000007152557 339 L 1037.0000007152557 339 L 1037.0000007152557 339 A 8 8 0 0 1 1029.0000007152557 331 L 1029.0000007152557 269 L 1029.0000007152557 269 A 8 8 0 0 1 1037.0000007152557 261 L 1303.0000007152557 261 Z" fill-opacity="1" stroke-opacity="1" stroke-miterlimit="10" stroke-width="5"/><text fill="rgb(255,255,255)" stroke="none" font-family="Avenir, Helvetica, Arial, sans-serif" font-size="32px" font-style="normal" font-weight="bold" text-decoration="normal" x="1303.0000007152557" y="316" text-anchor="middle" dominant-baseline="text-after-edge" fill-opacity="1">name</text><path fill="rgb(0,0,0)" stroke="rgb(0,0,0)" paint-order="fill stroke markers" d=" M 1303.0000007152557 394.00000071525574 L 1569.0000007152557 394.00000071525574 L 1569.0000007152557 394.00000071525574 A 8 8 0 0 1 1577.0000007152557 402.00000071525574 L 1577.0000007152557 464.00000071525574 L 1577.0000007152557 464.00000071525574 A 8 8 0 0 1 1569.0000007152557 472.00000071525574 L 1037.0000007152557 472.00000071525574 L 1037.0000007152557 472.00000071525574 A 8 8 0 0 1 1029.0000007152557 464.00000071525574 L 1029.0000007152557 402.00000071525574 L 1029.0000007152557 402.00000071525574 A 8 8 0 0 1 1037.0000007152557 394.00000071525574 L 1303.0000007152557 394.00000071525574 Z" fill-opacity="1" stroke-opacity="1" stroke-miterlimit="10" stroke-width="5"/><text fill="rgb(255,255,255)" stroke="none" font-family="Avenir, Helvetica, Arial, sans-serif" font-size="32px" font-style="normal" font-weight="bold" text-decoration="normal" x="1303.0000007152557" y="449.00000071525574" text-anchor="middle" dominant-baseline="text-after-edge" fill-opacity="1">public_key</text><path fill="rgb(255,247,224)" stroke="rgb(255,193,7)" paint-order="fill stroke markers" d=" M 2306.0000014305115 261 L 2572.0000014305115 261 L 2572.0000014305115 261 A 8 8 0 0 1 2580.0000014305115 269 L 2580.0000014305115 331 L 2580.0000014305115 331 A 8 8 0 0 1 2572.0000014305115 339 L 2040.0000014305115 339 L 2040.0000014305115 339 A 8 8 0 0 1 2032.0000014305115 331 L 2032.0000014305115 269 L 2032.0000014305115 269 A 8 8 0 0 1 2040.0000014305115 261 L 2306.0000014305115 261 Z" fill-opacity="1" stroke-opacity="1" stroke-miterlimit="10" stroke-width="5"/><text fill="rgb(0,0,0)" stroke="none" font-family="Avenir, Helvetica, Arial, sans-serif" font-size="32px" font-style="normal" font-weight="bold" text-decoration="normal" x="2306.0000014305115" y="316" text-anchor="middle" dominant-baseline="text-after-edge" fill-opacity="1">ssh_key_fingerprint</text><path fill="rgb(255,247,224)" stroke="rgb(255,193,7)" paint-order="fill stroke markers" d=" M 2306.0000014305115 394.00000071525574 L 2572.0000014305115 394.00000071525574 L 2572.0000014305115 394.00000071525574 A 8 8 0 0 1 2580.0000014305115 402.00000071525574 L 2580.0000014305115 464.00000071525574 L 2580.0000014305115 464.00000071525574 A 8 8 0 0 1 2572.0000014305115 472.00000071525574 L 2040.0000014305115 472.00000071525574 L 2040.0000014305115 472.00000071525574 A 8 8 0 0 1 2032.0000014305115 464.00000071525574 L 2032.0000014305115 402.00000071525574 L 2032.0000014305115 402.00000071525574 A 8 8 0 0 1 2040.0000014305115 394.00000071525574 L 2306.0000014305115 394.00000071525574 Z" fill-opacity="1" stroke-opacity="1" stroke-miterlimit="10" stroke-width="5"/><text fill="rgb(0,0,0)" stroke="none" font-family="Avenir, Helvetica, Arial, sans-serif" font-size="32px" font-style="normal" font-weight="bold" text-decoration="normal" x="2306.0000014305115" y="449.00000071525574" text-anchor="middle" dominant-baseline="text-after-edge" fill-opacity="1">ssh_key_name</text><path fill="rgb(255,247,224)" stroke="rgb(255,193,7)" paint-order="fill stroke markers" d=" M 2306.0000014305115 527.0000014305115 L 2572.0000014305115 527.0000014305115 L 2572.0000014305115 527.0000014305115 A 8 8 0 0 1 2580.0000014305115 535.0000014305115 L 2580.0000014305115 597.0000014305115 L 2580.0000014305115 597.0000014305115 A 8 8 0 0 1 2572.0000014305115 605.0000014305115 L 2040.0000014305115 605.0000014305115 L 2040.0000014305115 605.0000014305115 A 8 8 0 0 1 2032.0000014305115 597.0000014305115 L 2032.0000014305115 535.0000014305115 L 2032.0000014305115 535.0000014305115 A 8 8 0 0 1 2040.0000014305115 527.0000014305115 L 2306.0000014305115 527.0000014305115 Z" fill-opacity="1" stroke-opacity="1" stroke-miterlimit="10" stroke-width="5"/><text fill="rgb(0,0,0)" stroke="none" font-family="Avenir, Helvetica, Arial, sans-serif" font-size="32px" font-style="normal" font-weight="bold" text-decoration="normal" x="2306.0000014305115" y="582.0000014305115" text-anchor="middle" dominant-baseline="text-after-edge" fill-opacity="1">ssh_key_public_key</text><path fill="rgb(225,240,255)" stroke="rgb(29,122,218)" paint-order="fill stroke markers" d=" M 300 261 L 566 261 L 566 261 A 8 8 0 0 1 574 269 L 574 331 L 574 331 A 8 8 0 0 1 566 339 L 34 339 L 34 339 A 8 8 0 0 1 26 331 L 26 269 L 26 269 A 8 8 0 0 1 34 261 L 300 261 Z" fill-opacity="1" stroke-opacity="1" stroke-miterlimit="10" stroke-width="5"/><text fill="rgb(0,0,0)" stroke="none" font-family="Avenir, Helvetica, Arial, sans-serif" font-size="32px" font-style="normal" font-weight="bold" text-decoration="normal" x="300" y="316" text-anchor="middle" dominant-baseline="text-after-edge" fill-opacity="1">token</text><g transform="scale(5,5) translate(-57.7,-9.200000000000001)"/></g></svg>