<svg version="1.1" xmlns="http://www.w3.org/2000/svg" xmlns:xlink="http://www.w3.org/1999/xlink" width="635.2" height="597.4"><defs><linearGradient id="ipFDVPyzKsAd" x1="1001.5000003576279px" x2="1303.0000007152557px" y1="1183.000002861023px" y2="341.5px" gradientUnits="userSpaceOnUse"><stop offset="0" stop-color="rgb(132,80,186)" stop-opacity="1"/><stop offset="1" stop-color="rgb(0,0,0)" stop-opacity="1"/></linearGradient><linearGradient id="xcLrJzJyOQlK" x1="1001.5000003576279px" x2="1303.0000007152557px" y1="1183.000002861023px" y2="474.50000071525574px" gradientUnits="userSpaceOnUse"><stop offset="0" stop-color="rgb(132,80,186)" stop-opacity="1"/><stop offset="1" stop-color="rgb(0,0,0)" stop-opacity="1"/></linearGradient><linearGradient id="rpHDWSdiSHVC" x1="600px" x2="1503.0000007152557px" y1="2292.00000500679px" y2="1739.5000042915344px" gradientUnits="userSpaceOnUse"><stop offset="0" stop-color="rgb(211,211,211)" stop-opacity="1"/><stop offset="1" stop-color="rgb(29,122,218)" stop-opacity="1"/></linearGradient><linearGradient id="nfPJJtDheHxn" x1="600px" x2="1503.0000007152557px" y1="2292.00000500679px" y2="1473.500002861023px" gradientUnits="userSpaceOnUse"><stop offset="0" stop-color="rgb(211,211,211)" stop-opacity="1"/><stop offset="1" stop-color="rgb(29,122,218)" stop-opacity="1"/></linearGradient><linearGradient id="oKTVsQVoUNkR" x1="600px" x2="1503.0000007152557px" y1="2292.00000500679px" y2="1606.5000035762787px" gradientUnits="userSpaceOnUse"><stop offset="0" stop-color="rgb(211,211,211)" stop-opacity="1"/><stop offset="1" stop-color="rgb(29,122,218)" stop-opacity="1"/></linearGradient><linearGradient id="OsARQWTrZBpM" x1="500px" x2="600px" y1="1473.500002861023px" y2="2292.00000500679px" gradientUnits="userSpaceOnUse"><stop offset="0" stop-color="rgb(255,193,7)" stop-opacity="1"/><stop offset="1" stop-color="rgb(211,211,211)" stop-opacity="1"/></linearGradient><linearGradient id="TkwfVeVUQfAQ" x1="500px" x2="600px" y1="1606.5000035762787px" y2="2292.00000500679px" gradientUnits="userSpaceOnUse"><stop offset="0" stop-color="rgb(255,193,7)" stop-opacity="1"/><stop offset="1" stop-color="rgb(211,211,211)" stop-opacity="1"/></linearGradient><linearGradient id="ksbLMzpLkVSX" x1="500px" x2="600px" y1="1739.5000042915344px" y2="2292.00000500679px" gradientUnits="userSpaceOnUse"><stop offset="0" stop-color="rgb(255,193,7)" stop-opacity="1"/><stop offset="1" stop-color="rgb(211,211,211)" stop-opacity="1"/></linearGradient><linearGradient id="kertivoFypDl" x1="2306.0000014305115px" x2="1001.5000003576279px" y1="740.5000021457672px" y2="1183.000002861023px" gradientUnits="userSpaceOnUse"><stop offset="0" stop-color="rgb(255,193,7)" stop-opacity="1"/><stop offset="1" stop-color="rgb(132,80,186)" stop-opacity="1"/></linearGradient><linearGradient id="wnooaOWroaeL" x1="2306.0000014305115px" x2="1001.5000003576279px" y1="740.5000021457672px" y2="1183.000002861023px" gradientUnits="userSpaceOnUse"><stop offset="0" stop-color="rgb(255,193,7)" stop-opacity="1"/><stop offset="1" stop-color="rgb(132,80,186)" stop-opacity="1"/></linearGradient><linearGradient id="xLCdVsWdqWwN" x1="2306.0000014305115px" x2="1001.5000003576279px" y1="341.5px" y2="1183.000002861023px" gradientUnits="userSpaceOnUse"><stop offset="0" stop-color="rgb(255,193,7)" stop-opacity="1"/><stop offset="1" stop-color="rgb(132,80,186)" stop-opacity="1"/></linearGradient><linearGradient id="NNTAECnNQHgd" x1="2306.0000014305115px" x2="1001.5000003576279px" y1="341.5px" y2="1183.000002861023px" gradientUnits="userSpaceOnUse"><stop offset="0" stop-color="rgb(255,193,7)" stop-opacity="1"/><stop offset="1" stop-color="rgb(132,80,186)" stop-opacity="1"/></linearGradient><linearGradient id="MPsIikzCSpMZ" x1="2306.0000014305115px" x2="1001.5000003576279px" y1="474.50000071525574px" y2="1183.000002861023px" gradientUnits="userSpaceOnUse"><stop offset="0" stop-color="rgb(255,193,7)" stop-opacity="1"/><stop offset="1" stop-color="rgb(132,80,186)" stop-opacity="1"/></linearGradient><linearGradient id="uRIzKIyiNwMh" x1="2306.0000014305115px" x2="1001.5000003576279px" y1="474.50000071525574px" y2="1183.000002861023px" gradientUnits="userSpaceOnUse"><stop offset="0" stop-color="rgb(255,193,7)" stop-opacity="1"/><stop offset="1" stop-color="rgb(132,80,186)" stop-opacity="1"/></linearGradient><linearGradient id="lrlUCCFSKrRW" x1="2306.0000014305115px" x2="1001.5000003576279px" y1="607.5000014305115px" y2="1183.000002861023px" gradientUnits="userSpaceOnUse"><stop offset="0" stop-color="rgb(255,193,7)" stop-opacity="1"/><stop offset="1" stop-color="rgb(132,80,186)" stop-opacity="1"/></linearGradient><linearGradient id="keIcWBsQLrJI" x1="2306.0000014305115px" x2="1001.5000003576279px" y1="607.5000014305115px" y2="1183.000002861023px" gradientUnits="userSpaceOnUse"><stop offset="0" stop-color="rgb(255,193,7)" stop-opacity="1"/><stop offset="1" stop-color="rgb(132,80,186)" stop-opacity="1"/></linearGradient></defs><g transform="translate(57.7,9.200000000000001) scale(0.2,0.2)"><path fill="rgb(244,236,255)" stroke="rgb(255,255,255)" paint-order="fill stroke markers" d=" M 1299.2500007152557 -44 L 2877.0000014305115 -44 L 2877.0000014305115 -44 A 8 8 0 0 1 2885.0000014305115 -36 L 2885.0000014305115 2930.50000500679 L 2885.0000014305115 2930.50000500679 A 8 8 0 0 1 2877.0000014305115 2938.50000500679 L -278.5 2938.50000500679 L -278.5 2938.50000500679 A 8 8 0 0 1 -286.5 2930.50000500679 L -286.5 -36 L -286.5 -36 A 8 8 0 0 1 -278.5 -44 L 1299.2500007152557 -44 Z" fill-opacity="1" stroke-opacity="1" stroke-miterlimit="10" stroke-width="2"/><text fill="rgb(0,0,0)" stroke="none" font-family="Avenir, Helvetica, Arial, sans-serif" font-size="32px" font-style="normal" font-weight="bold" text-decoration="normal" x="1299.2500007152557" y="31" text-anchor="middle" dominant-baseline="text-after-edge" fill-opacity="1">.</text><path fill="rgb(255,255,255)" stroke="rgb(211,211,211)" paint-order="fill stroke markers" d=" M 300 157.5 L 669.5 157.5 L 669.5 157.5 A 8 8 0 0 1 677.5 165.5 L 677.5 434.5 L 677.5 434.5 A 8 8 0 0 1 669.5 442.5 L -69.5 442.5 L -69.5 442.5 A 8 8 0 0 1 -77.5 434.5 L -77.5 165.5 L -77.5 165.5 A 8 8 0 0 1 -69.5 157.5 L 300 157.5 Z" fill-opacity="1" stroke-opacity="1" stroke-miterlimit="10"/><text fill="rgb(0,0,0)" stroke="none" font-family="Avenir, Helvetica, Arial, sans-serif" font-size="32px" font-style="normal" font-weight="bold" text-decoration="normal" x="300" y="232.5" text-anchor="middle" dominant-baseline="text-after-edge" fill-opacity="1">variables.tf</text><path fill="rgb(255,255,255)" stroke="rgb(211,211,211)" paint-order="fill stroke markers" d=" M 1001.5000003576279 1082.000002861023 L 2080.0000007152557 1082.000002861023 L 2080.0000007152557 1082.000002861023 A 8 8 0 0 1 2088.0000007152557 1090.000002861023 L 2088.0000007152557 2729.00000500679 L 2088.0000007152557 2729.00000500679 A 8 8 0 0 1 2080.0000007152557 2737.00000500679 L -77 2737.00000500679 L -77 2737.00000500679 A 8 8 0 0 1 -85 2729.00000500679 L -85 1090.000002861023 L -85 1090.000002861023 A 8 8 0 0 1 -77 1082.000002861023 L 1001.5000003576279 1082.000002861023 Z" fill-opacity="1" stroke-opacity="1" stroke-miterlimit="10"/><text fill="rgb(0,0,0)" stroke="none" font-family="Avenir, Helvetica, Arial, sans-serif" font-size="32px" font-style="normal" font-weight="bold" text-decoration="normal" x="1001.5000003576279" y="1157.000002861023" text-anchor="middle" dominant-baseline="text-after-edge" fill-opacity="1">main.tf</text><path fill="rgb(255,255,255)" stroke="rgb(211,211,211)" paint-order="fill stroke markers" d=" M 1303.0000007152557 157.5 L 1672.5000007152557 157.5 L 1672.5000007152557 157.5 A 8 8 0 0 1 1680.5000007152557 165.5 L 1680.5000007152557 567.5000007152557 L 1680.5000007152557 567.5000007152557 A 8 8 0 0 1 1672.5000007152557 575.5000007152557 L 933.5000007152557 575.5000007152557 L 933.5000007152557 575.5000007152557 A 8 8 0 0 1 925.5000007152557 567.5000007152557 L 925.5000007152557 165.5 L 925.5000007152557 165.5 A 8 8 0 0 1 933.5000007152557 157.5 L 1303.0000007152557 157.5 Z" fill-opacity="1" stroke-opacity="1" stroke-miterlimit="10"/><text fill="rgb(0,0,0)" stroke="none" font-family="Avenir, Helvetica, Arial, sans-serif" font-size="32px" font-style="normal" font-weight="bold" text-decoration="normal" x="1303.0000007152557" y="232.5" text-anchor="middle" dominant-baseline="text-after-edge" fill-opacity="1">unknown file</text><path fill="rgb(255,255,255)" stroke="rgb(211,211,211)" paint-order="fill stroke markers" d=" M 2306.0000014305115 157.5 L 2675.5000014305115 157.5 L 2675.5000014305115 157.5 A 8 8 0 0 1 2683.5000014305115 165.5 L 2683.5000014305115 833.5000021457672 L 2683.5000014305115 833.5000021457672 A 8 8 0 0 1 2675.5000014305115 841.5000021457672 L 1936.5000014305115 841.5000021457672 L 1936.5000014305115 841.5000021457672 A 8 8 0 0 1 1928.5000014305115 833.5000021457672 L 1928.5000014305115 165.5 L 1928.5000014305115 165.5 A 8 8 0 0 1 1936.5000014305115 157.5 L 2306.0000014305115 157.5 Z" fill-opacity="1" stroke-opacity="1" stroke-miterlimit="10"/><text fill="rgb(0,0,0)" stroke="none" font-family="Avenir, Helvetica, Arial, sans-serif" font-size="32px" font-style="normal" font-weight="bold" text-decoration="normal" x="2306.0000014305115" y="232.5" text-anchor="middle" dominant-baseline="text-after-edge" fill-opacity="1">outputs.tf</text><path fill="rgb(255,255,255)" stroke="rgb(132,80,186)" paint-order="fill stroke markers" d=" M 1001.5000003576279 1188.000002861023 L 1974.0000007152557 1188.000002861023 L 1974.0000007152557 1188.000002861023 A 8 8 0 0 1 1982.0000007152557 1196.000002861023 L 1982.0000007152557 2623.00000500679 L 1982.0000007152557 2623.00000500679 A 8 8 0 0 1 1974.0000007152557 2631.00000500679 L 29 2631.00000500679 L 29 2631.00000500679 A 8 8 0 0 1 21 2623.00000500679 L 21 1196.000002861023 L 21 1196.000002861023 A 8 8 0 0 1 29 1188.000002861023 L 1001.5000003576279 1188.000002861023 Z" fill-opacity="1" stroke-opacity="1" stroke-miterlimit="10" stroke-width="10"/><text fill="rgb(132,80,186)" stroke="none" font-family="Avenir, Helvetica, Arial, sans-serif" font-size="32px" font-style="normal" font-weight="bold" text-decoration="normal" x="1001.5000003576279" y="1248.000002861023" text-anchor="middle" dominant-baseline="text-after-edge" fill-opacity="1">hcloud_ssh_key</text><path fill="rgb(255,255,255)" stroke="rgb(211,211,211)" paint-order="fill stroke markers" d=" M 500 1289.500002861023 L 869.5 1289.500002861023 L 869.5 1289.500002861023 A 8 8 0 0 1 877.5 1297.500002861023 L 877.5 1832.5000042915344 L 877.5 1832.5000042915344 A 8 8 0 0 1 869.5 1840.5000042915344 L 130.5 1840.5000042915344 L 130.5 1840.5000042915344 A 8 8 0 0 1 122.5 1832.5000042915344 L 122.5 1297.500002861023 L 122.5 1297.500002861023 A 8 8 0 0 1 130.5 1289.500002861023 L 500 1289.500002861023 Z" fill-opacity="1" stroke-opacity="1" stroke-miterlimit="10"/><text fill="rgb(0,0,0)" stroke="none" font-family="Avenir, Helvetica, Arial, sans-serif" font-size="32px" font-style="normal" font-weight="bold" text-decoration="normal" x="500" y="1364.500002861023" text-anchor="middle" dominant-baseline="text-after-edge" fill-opacity="1">outputs.tf</text><path fill="rgb(255,255,255)" stroke="rgb(211,211,211)" paint-order="fill stroke markers" d=" M 1503.0000007152557 1289.500002861023 L 1872.5000007152557 1289.500002861023 L 1872.5000007152557 1289.500002861023 A 8 8 0 0 1 1880.5000007152557 1297.500002861023 L 1880.5000007152557 1832.5000042915344 L 1880.5000007152557 1832.5000042915344 A 8 8 0 0 1 1872.5000007152557 1840.5000042915344 L 1133.5000007152557 1840.5000042915344 L 1133.5000007152557 1840.5000042915344 A 8 8 0 0 1 1125.5000007152557 1832.5000042915344 L 1125.5000007152557 1297.500002861023 L 1125.5000007152557 1297.500002861023 A 8 8 0 0 1 1133.5000007152557 1289.500002861023 L 1503.0000007152557 1289.500002861023 Z" fill-opacity="1" stroke-opacity="1" stroke-miterlimit="10"/><text fill="rgb(0,0,0)" stroke="none" font-family="Avenir, Helvetica, Arial, sans-serif" font-size="32px" font-style="normal" font-weight="bold" text-decoration="normal" x="1503.0000007152557" y="1364.500002861023" text-anchor="middle" dominant-baseline="text-after-edge" fill-opacity="1">variables.tf</text><path fill="rgb(255,255,255)" stroke="rgb(211,211,211)" paint-order="fill stroke markers" d=" M 600 2087.00000500679 L 1025.5 2087.00000500679 L 1025.5 2087.00000500679 A 8 8 0 0 1 1033.5 2095.00000500679 L 1033.5 2521.50000500679 L 1033.5 2521.50000500679 A 8 8 0 0 1 1025.5 2529.50000500679 L 174.5 2529.50000500679 L 174.5 2529.50000500679 A 8 8 0 0 1 166.5 2521.50000500679 L 166.5 2095.00000500679 L 166.5 2095.00000500679 A 8 8 0 0 1 174.5 2087.00000500679 L 600 2087.00000500679 Z" fill-opacity="1" stroke-opacity="1" stroke-miterlimit="10"/><text fill="rgb(0,0,0)" stroke="none" font-family="Avenir, Helvetica, Arial, sans-serif" font-size="32px" font-style="normal" font-weight="bold" text-decoration="normal" x="600" y="2162.00000500679" text-anchor="middle" dominant-baseline="text-after-edge" fill-opacity="1">main.tf</text><path fill="rgb(255,255,255)" stroke="rgb(0,0,0)" paint-order="fill stroke markers" d=" M 600 2236.00000500679 L 922 2236.00000500679 L 922 2236.00000500679 A 8 8 0 0 1 930 2244.00000500679 L 930 2418.00000500679 L 930 2418.00000500679 A 8 8 0 0 1 922 2426.00000500679 L 278 2426.00000500679 L 278 2426.00000500679 A 8 8 0 0 1 270 2418.00000500679 L 270 2244.00000500679 L 270 2244.00000500679 A 8 8 0 0 1 278 2236.00000500679 L 600 2236.00000500679 Z" fill-opacity="1" stroke-opacity="1" stroke-miterlimit="10" stroke-width="5"/><rect fill="rgb(255,255,255)" stroke="none" x="452.5" y="2187.00000500679" width="295" height="96" fill-opacity="1"/><text fill="rgb(0,0,0)" stroke="none" font-family="Avenir, Helvetica, Arial, sans-serif" font-size="32px" font-style="normal" font-weight="bold" text-decoration="normal" x="600" y="2251.00000500679" text-anchor="middle" dominant-baseline="text-after-edge" fill-opacity="1">hcloud_ssh_key</text><path fill="none" stroke="url(#ipFDVPyzKsAd)" paint-order="fill stroke markers" d=" M 1001.5000003576279 1183.000002861023 L 1001.5000003576279 762.2500014305115 L 1303.0000007152557 762.2500014305115 L 1303.0000007152557 341.5" stroke-linejoin="round" stroke-miterlimit="10" stroke-width="10"/><path fill="none" stroke="url(#xcLrJzJyOQlK)" paint-order="fill stroke markers" d=" M 1001.5000003576279 1183.000002861023 L 1001.5000003576279 828.7500017881393 L 1303.0000007152557 828.7500017881393 L 1303.0000007152557 474.50000071525574" stroke-linejoin="round" stroke-miterlimit="10" stroke-width="10"/><path fill="none" stroke="url(#rpHDWSdiSHVC)" paint-order="fill stroke markers" d=" M 600 2292.00000500679 L 600 2015.7500046491623 L 1503.0000007152557 2015.7500046491623 L 1503.0000007152557 1739.5000042915344" stroke-linejoin="round" stroke-miterlimit="10" stroke-width="10"/><path fill="none" stroke="url(#nfPJJtDheHxn)" paint-order="fill stroke markers" d=" M 600 2292.00000500679 L 600 1882.7500039339066 L 1503.0000007152557 1882.7500039339066 L 1503.0000007152557 1473.500002861023" stroke-linejoin="round" stroke-miterlimit="10" stroke-width="10"/><path fill="none" stroke="url(#oKTVsQVoUNkR)" paint-order="fill stroke markers" d=" M 600 2292.00000500679 L 600 1949.2500042915344 L 1503.0000007152557 1949.2500042915344 L 1503.0000007152557 1606.5000035762787" stroke-linejoin="round" stroke-miterlimit="10" stroke-width="10"/><path fill="none" stroke="url(#OsARQWTrZBpM)" paint-order="fill stroke markers" d=" M 500 1473.500002861023 L 500 1882.7500039339066 L 600 1882.7500039339066 L 600 2292.00000500679" stroke-linejoin="round" stroke-miterlimit="10" stroke-width="10"/><path fill="none" stroke="url(#TkwfVeVUQfAQ)" paint-order="fill stroke markers" d=" M 500 1606.5000035762787 L 500 1949.2500042915344 L 600 1949.2500042915344 L 600 2292.00000500679" stroke-linejoin="round" stroke-miterlimit="10" stroke-width="10"/><path fill="none" stroke="url(#ksbLMzpLkVSX)" paint-order="fill stroke markers" d=" M 500 1739.5000042915344 L 500 2015.7500046491623 L 600 2015.7500046491623 L 600 2292.00000500679" stroke-linejoin="round" stroke-miterlimit="10" stroke-width="10"/><path fill="none" stroke="url(#kertivoFypDl)" paint-order="fill stroke markers" d=" M 2306.0000014305115 740.5000021457672 L 2306.0000014305115 961.7500025033951 L 1001.5000003576279 961.7500025033951 L 1001.5000003576279 1183.000002861023" stroke-linejoin="round" stroke-miterlimit="10" stroke-width="10"/><path fill="none" stroke="url(#wnooaOWroaeL)" paint-order="fill stroke markers" d=" M 2306.0000014305115 740.5000021457672 L 2306.0000014305115 961.7500025033951 L 1001.5000003576279 961.7500025033951 L 1001.5000003576279 1183.000002861023" stroke-linejoin="round" stroke-miterlimit="10" stroke-width="10"/><path fill="none" stroke="url(#xLCdVsWdqWwN)" paint-order="fill stroke markers" d=" M 2306.0000014305115 341.5 L 2306.0000014305115 762.2500014305115 L 1001.5000003576279 762.2500014305115 L 1001.5000003576279 1183.000002861023" stroke-linejoin="round" stroke-miterlimit="10" stroke-width="10"/><path fill="none" stroke="url(#NNTAECnNQHgd)" paint-order="fill stroke markers" d=" M 2306.0000014305115 341.5 L 2306.0000014305115 762.2500014305115 L 1001.5000003576279 762.2500014305115 L 1001.5000003576279 1183.000002861023" stroke-linejoin="round" stroke-miterlimit="10" stroke-width="10"/><path fill="none" stroke="url(#MPsIikzCSpMZ)" paint-order="fill stroke markers" d=" M 2306.0000014305115 474.50000071525574 L 2306.0000014305115 828.7500017881393 L 1001.5000003576279 828.7500017881393 L 1001.5000003576279 1183.000002861023" stroke-linejoin="round" stroke-miterlimit="10" stroke-width="10"/><path fill="none" stroke="url(#uRIzKIyiNwMh)" paint-order="fill stroke markers" d=" M 2306.0000014305115 474.50000071525574 L 2306.0000014305115 828.7500017881393 L 1001.5000003576279 828.7500017881393 L 1001.5000003576279 1183.000002861023" stroke-linejoin="round" stroke-miterlimit="10" stroke-width="10"/><path fill="none" stroke="url(#lrlUCCFSKrRW)" paint-order="fill stroke markers" d=" M 2306.0000014305115 607.5000014305115 L 2306.0000014305115 895.2500021457672 L 1001.5000003576279 895.2500021457672 L 1001.5000003576279 1183.000002861023" stroke-linejoin="round" stroke-miterlimit="10" stroke-width="10"/><path fill="none" stroke="url(#keIcWBsQLrJI)" paint-order="fill stroke markers" d=" M 2306.0000014305115 607.5000014305115 L 2306.0000014305115 895.2500021457672 L 1001.5000003576279 895.2500021457672 L 1001.5000003576279 1183.000002861023" stroke-linejoin="round" stroke-miterlimit="10" stroke-width="10"/><path fill="rgb(225,240,255)" stroke="rgb(29,122,218)" paint-order="fill stroke markers" d=" M 300 261 L 566 261 L 566 261 A 8 8 0 0 1 574 269 L 574 331 L 574 331 A 8 8 0 0 1 566 339 L 34 339 L 34 339 A 8 8 0 0 1 26 331 L 26 269 L 26 269 A 8 8 0 0 1 34 261 L 300 261 Z" fill-opacity="1" stroke-opacity="1" stroke-miterlimit="10" stroke-width="5"/><text fill="rgb(0,0,0)" stroke="none" font-family="Avenir, Helvetica, Arial, sans-serif" font-size="32px" font-style="normal" font-weight="bold" text-decoration="normal" x="300" y="316" text-anchor="middle" dominant-baseline="text-after-edge" fill-opacity="1">token</text><path fill="rgb(255,247,224)" stroke="rgb(255,193,7)" paint-order="fill stroke markers" d=" M 500 1393.000002861023 L 766 1393.000002861023 L 766 1393.000002861023 A 8 8 0 0 1 774 1401.000002861023 L 774 1463.000002861023 L 774 1463.000002861023 A 8 8 0 0 1 766 1471.000002861023 L 234 1471.000002861023 L 234 1471.000002861023 A 8 8 0 0 1 226 1463.000002861023 L 226 1401.000002861023 L 226 1401.000002861023 A 8 8 0 0 1 234 1393.000002861023 L 500 1393.000002861023 Z" fill-opacity="1" stroke-opacity="1" stroke-miterlimit="10" stroke-width="5"/><text fill="rgb(0,0,0)" stroke="none" font-family="Avenir, Helvetica, Arial, sans-serif" font-size="32px" font-style="normal" font-weight="bold" text-decoration="normal" x="500" y="1448.000002861023" text-anchor="middle" dominant-baseline="text-after-edge" fill-opacity="1">name</text><path fill="rgb(255,247,224)" stroke="rgb(255,193,7)" paint-order="fill stroke markers" d=" M 500 1526.0000035762787 L 766 1526.0000035762787 L 766 1526.0000035762787 A 8 8 0 0 1 774 1534.0000035762787 L 774 1596.0000035762787 L 774 1596.0000035762787 A 8 8 0 0 1 766 1604.0000035762787 L 234 1604.0000035762787 L 234 1604.0000035762787 A 8 8 0 0 1 226 1596.0000035762787 L 226 1534.0000035762787 L 226 1534.0000035762787 A 8 8 0 0 1 234 1526.0000035762787 L 500 1526.0000035762787 Z" fill-opacity="1" stroke-opacity="1" stroke-miterlimit="10" stroke-width="5"/><text fill="rgb(0,0,0)" stroke="none" font-family="Avenir, Helvetica, Arial, sans-serif" font-size="32px" font-style="normal" font-weight="bold" text-decoration="normal" x="500" y="1581.0000035762787" text-anchor="middle" dominant-baseline="text-after-edge" fill-opacity="1">public_key</text><path fill="rgb(255,247,224)" stroke="rgb(255,193,7)" paint-order="fill stroke markers" d=" M 500 1659.0000042915344 L 766 1659.0000042915344 L 766 1659.0000042915344 A 8 8 0 0 1 774 1667.0000042915344 L 774 1729.0000042915344 L 774 1729.0000042915344 A 8 8 0 0 1 766 1737.0000042915344 L 234 1737.0000042915344 L 234 1737.0000042915344 A 8 8 0 0 1 226 1729.0000042915344 L 226 1667.0000042915344 L 226 1667.0000042915344 A 8 8 0 0 1 234 1659.0000042915344 L 500 1659.0000042915344 Z" fill-opacity="1" stroke-opacity="1" stroke-miterlimit="10" stroke-width="5"/><text fill="rgb(0,0,0)" stroke="none" font-family="Avenir, Helvetica, Arial, sans-serif" font-size="32px" font-style="normal" font-weight="bold" text-decoration="normal" x="500" y="1714.0000042915344" text-anchor="middle" dominant-baseline="text-after-edge" fill-opacity="1">fingerprint</text><path fill="rgb(225,240,255)" stroke="rgb(29,122,218)" paint-order="fill stroke markers" d=" M 1503.0000007152557 1393.000002861023 L 1769.0000007152557 1393.000002861023 L 1769.0000007152557 1393.000002861023 A 8 8 0 0 1 1777.0000007152557 1401.000002861023 L 1777.0000007152557 1463.000002861023 L 1777.0000007152557 1463.000002861023 A 8 8 0 0 1 1769.0000007152557 1471.000002861023 L 1237.0000007152557 1471.000002861023 L 1237.0000007152557 1471.000002861023 A 8 8 0 0 1 1229.0000007152557 1463.000002861023 L 1229.0000007152557 1401.000002861023 L 1229.0000007152557 1401.000002861023 A 8 8 0 0 1 1237.0000007152557 1393.000002861023 L 1503.0000007152557 1393.000002861023 Z" fill-opacity="1" stroke-opacity="1" stroke-miterlimit="10" stroke-width="5"/><text fill="rgb(0,0,0)" stroke="none" font-family="Avenir, Helvetica, Arial, sans-serif" font-size="32px" font-style="normal" font-weight="bold" text-decoration="normal" x="1503.0000007152557" y="1448.000002861023" text-anchor="middle" dominant-baseline="text-after-edge" fill-opacity="1">name</text><path fill="rgb(225,240,255)" stroke="rgb(29,122,218)" paint-order="fill stroke markers" d=" M 1503.0000007152557 1526.0000035762787 L 1769.0000007152557 1526.0000035762787 L 1769.0000007152557 1526.0000035762787 A 8 8 0 0 1 1777.0000007152557 1534.0000035762787 L 1777.0000007152557 1596.0000035762787 L 1777.0000007152557 1596.0000035762787 A 8 8 0 0 1 1769.0000007152557 1604.0000035762787 L 1237.0000007152557 1604.0000035762787 L 1237.0000007152557 1604.0000035762787 A 8 8 0 0 1 1229.0000007152557 1596.0000035762787 L 1229.0000007152557 1534.0000035762787 L 1229.0000007152557 1534.0000035762787 A 8 8 0 0 1 1237.0000007152557 1526.0000035762787 L 1503.0000007152557 1526.0000035762787 Z" fill-opacity="1" stroke-opacity="1" stroke-miterlimit="10" stroke-width="5"/><text fill="rgb(0,0,0)" stroke="none" font-family="Avenir, Helvetica, Arial, sans-serif" font-size="32px" font-style="normal" font-weight="bold" text-decoration="normal" x="1503.0000007152557" y="1581.0000035762787" text-anchor="middle" dominant-baseline="text-after-edge" fill-opacity="1">public_key</text><path fill="rgb(225,240,255)" stroke="rgb(29,122,218)" paint-order="fill stroke markers" d=" M 1503.0000007152557 1659.0000042915344 L 1769.0000007152557 1659.0000042915344 L 1769.0000007152557 1659.0000042915344 A 8 8 0 0 1 1777.0000007152557 1667.0000042915344 L 1777.0000007152557 1729.0000042915344 L 1777.0000007152557 1729.0000042915344 A 8 8 0 0 1 1769.0000007152557 1737.0000042915344 L 1237.0000007152557 1737.0000042915344 L 1237.0000007152557 1737.0000042915344 A 8 8 0 0 1 1229.0000007152557 1729.0000042915344 L 1229.0000007152557 1667.0000042915344 L 1229.0000007152557 1667.0000042915344 A 8 8 0 0 1 1237.0000007152557 1659.0000042915344 L 1503.0000007152557 1659.0000042915344 Z" fill-opacity="1" stroke-opacity="1" stroke-miterlimit="10" stroke-width="5"/><text fill="rgb(0,0,0)" stroke="none" font-family="Avenir, Helvetica, Arial, sans-serif" font-size="32px" font-style="normal" font-weight="bold" text-decoration="normal" x="1503.0000007152557" y="1714.0000042915344" text-anchor="middle" dominant-baseline="text-after-edge" fill-opacity="1">labels</text><path fill="rgb(40,167,69)" stroke="none" paint-order="stroke fill markers" d=" M 600 2292.00000500679 L 866 2292.00000500679 L 866 2292.00000500679 A 8 8 0 0 1 874 2300.00000500679 L 874 2362.00000500679 L 874 2362.00000500679 A 8 8 0 0 1 866 2370.00000500679 L 334 2370.00000500679 L 334 2370.00000500679 A 8 8 0 0 1 326 2362.00000500679 L 326 2300.00000500679 L 326 2300.00000500679 A 8 8 0 0 1 334 2292.00000500679 L 600 2292.00000500679 Z" fill-opacity="1"/><text fill="rgb(255,255,255)" stroke="none" font-family="Avenir, Helvetica, Arial, sans-serif" font-size="32px" font-style="normal" font-weight="bold" text-decoration="normal" x="600" y="2347.00000500679" text-anchor="middle" dominant-baseline="text-after-edge" fill-opacity="1">default</text><path fill="rgb(0,0,0)" stroke="rgb(0,0,0)" paint-order="fill stroke markers" d=" M 1303.0000007152557 261 L 1569.0000007152557 261 L 1569.0000007152557 261 A 8 8 0 0 1 1577.0000007152557 269 L 1577.0000007152557 331 L 1577.0000007152557 331 A 8 8 0 0 1 1569.0000007152557 339 L 1037.0000007152557 339 L 1037.0000007152557 339 A 8 8 0 0 1 1029.0000007152557 331 L 1029.0000007152557 269 L 1029.0000007152557 269 A 8 8 0 0 1 1037.0000007152557 261 L 1303.0000007152557 261 Z" fill-opacity="1" stroke-opacity="1" stroke-miterlimit="10" stroke-width="5"/><text fill="rgb(255,255,255)" stroke="none" font-family="Avenir, Helvetica, Arial, sans-serif" font-size="32px" font-style="normal" font-weight="bold" text-decoration="normal" x="1303.0000007152557" y="316" text-anchor="middle" dominant-baseline="text-after-edge" fill-opacity="1">name</text><path fill="rgb(0,0,0)" stroke="rgb(0,0,0)" paint-order="fill stroke markers" d=" M 1303.0000007152557 394.00000071525574 L 1569.0000007152557 394.00000071525574 L 1569.0000007152557 394.00000071525574 A 8 8 0 0 1 1577.0000007152557 402.00000071525574 L 1577.0000007152557 464.00000071525574 L 1577.0000007152557 464.00000071525574 A 8 8 0 0 1 1569.0000007152557 472.00000071525574 L 1037.0000007152557 472.00000071525574 L 1037.0000007152557 472.00000071525574 A 8 8 0 0 1 1029.0000007152557 464.00000071525574 L 1029.0000007152557 402.00000071525574 L 1029.0000007152557 402.00000071525574 A 8 8 0 0 1 1037.0000007152557 394.00000071525574 L 1303.0000007152557 394.00000071525574 Z" fill-opacity="1" stroke-opacity="1" stroke-miterlimit="10" stroke-width="5"/><text fill="rgb(255,255,255)" stroke="none" font-family="Avenir, Helvetica, Arial, sans-serif" font-size="32px" font-style="normal" font-weight="bold" text-decoration="normal" x="1303.0000007152557" y="449.00000071525574" text-anchor="middle" dominant-baseline="text-after-edge" fill-opacity="1">public_key</text><path fill="rgb(255,247,224)" stroke="rgb(255,193,7)" paint-order="fill stroke markers" d=" M 2306.0000014305115 261 L 2572.0000014305115 261 L 2572.0000014305115 261 A 8 8 0 0 1 2580.0000014305115 269 L 2580.0000014305115 331 L 2580.0000014305115 331 A 8 8 0 0 1 2572.0000014305115 339 L 2040.0000014305115 339 L 2040.0000014305115 339 A 8 8 0 0 1 2032.0000014305115 331 L 2032.0000014305115 269 L 2032.0000014305115 269 A 8 8 0 0 1 2040.0000014305115 261 L 2306.0000014305115 261 Z" fill-opacity="1" stroke-opacity="1" stroke-miterlimit="10" stroke-width="5"/><text fill="rgb(0,0,0)" stroke="none" font-family="Avenir, Helvetica, Arial, sans-serif" font-size="32px" font-style="normal" font-weight="bold" text-decoration="normal" x="2306.0000014305115" y="316" text-anchor="middle" dominant-baseline="text-after-edge" fill-opacity="1">ssh_key_id</text><path fill="rgb(255,247,224)" stroke="rgb(255,193,7)" paint-order="fill stroke markers" d=" M 2306.0000014305115 394.00000071525574 L 2572.0000014305115 394.00000071525574 L 2572.0000014305115 394.00000071525574 A 8 8 0 0 1 2580.0000014305115 402.00000071525574 L 2580.0000014305115 464.00000071525574 L 2580.0000014305115 464.00000071525574 A 8 8 0 0 1 2572.0000014305115 472.00000071525574 L 2040.0000014305115 472.00000071525574 L 2040.0000014305115 472.00000071525574 A 8 8 0 0 1 2032.0000014305115 464.00000071525574 L 2032.0000014305115 402.00000071525574 L 2032.0000014305115 402.00000071525574 A 8 8 0 0 1 2040.0000014305115 394.00000071525574 L 2306.0000014305115 394.00000071525574 Z" fill-opacity="1" stroke-opacity="1" stroke-miterlimit="10" stroke-width="5"/><text fill="rgb(0,0,0)" stroke="none" font-family="Avenir, Helvetica, Arial, sans-serif" font-size="32px" font-style="normal" font-weight="bold" text-decoration="normal" x="2306.0000014305115" y="449.00000071525574" text-anchor="middle" dominant-baseline="text-after-edge" fill-opacity="1">ssh_key_name</text><path fill="rgb(255,247,224)" stroke="rgb(255,193,7)" paint-order="fill stroke markers" d=" M 2306.0000014305115 527.0000014305115 L 2572.0000014305115 527.0000014305115 L 2572.0000014305115 527.0000014305115 A 8 8 0 0 1 2580.0000014305115 535.0000014305115 L 2580.0000014305115 597.0000014305115 L 2580.0000014305115 597.0000014305115 A 8 8 0 0 1 2572.0000014305115 605.0000014305115 L 2040.0000014305115 605.0000014305115 L 2040.0000014305115 605.0000014305115 A 8 8 0 0 1 2032.0000014305115 597.0000014305115 L 2032.0000014305115 535.0000014305115 L 2032.0000014305115 535.0000014305115 A 8 8 0 0 1 2040.0000014305115 527.0000014305115 L 2306.0000014305115 527.0000014305115 Z" fill-opacity="1" stroke-opacity="1" stroke-miterlimit="10" stroke-width="5"/><text fill="rgb(0,0,0)" stroke="none" font-family="Avenir, Helvetica, Arial, sans-serif" font-size="32px" font-style="normal" font-weight="bold" text-decoration="normal" x="2306.0000014305115" y="582.0000014305115" text-anchor="middle" dominant-baseline="text-after-edge" fill-opacity="1">ssh_key_public_key</text><path fill="rgb(255,247,224)" stroke="rgb(255,193,7)" paint-order="fill stroke markers" d=" M 2306.0000014305115 660.0000021457672 L 2572.0000014305115 660.0000021457672 L 2572.0000014305115 660.0000021457672 A 8 8 0 0 1 2580.0000014305115 668.0000021457672 L 2580.0000014305115 730.0000021457672 L 2580.0000014305115 730.0000021457672 A 8 8 0 0 1 2572.0000014305115 738.0000021457672 L 2040.0000014305115 738.0000021457672 L 2040.0000014305115 738.0000021457672 A 8 8 0 0 1 2032.0000014305115 730.0000021457672 L 2032.0000014305115 668.0000021457672 L 2032.0000014305115 668.0000021457672 A 8 8 0 0 1 2040.0000014305115 660.0000021457672 L 2306.0000014305115 660.0000021457672 Z" fill-opacity="1" stroke-opacity="1" stroke-miterlimit="10" stroke-width="5"/><text fill="rgb(0,0,0)" stroke="none" font-family="Avenir, Helvetica, Arial, sans-serif" font-size="32px" font-style="normal" font-weight="bold" text-decoration="normal" x="2306.0000014305115" y="715.0000021457672" text-anchor="middle" dominant-baseline="text-after-edge" fill-opacity="1">ssh_key_fingerprint</text><g transform="scale(5,5) translate(-57.7,-9.200000000000001)"/></g></svg>